<svg xmlns="http://www.w3.org/2000/svg" width="760" height="168" viewBox="0 0 760 168" role="img" aria-label="TradeVeto">
  <defs>
    <linearGradient id="mark-cyan" x1="32" x2="132" y1="24" y2="144" gradientUnits="userSpaceOnUse">
      <stop stop-color="#67E8F9"/>
      <stop offset=".52" stop-color="#2DD4BF"/>
      <stop offset="1" stop-color="#D6B35A"/>
    </linearGradient>
    <linearGradient id="word" x1="178" x2="646" y1="38" y2="128" gradientUnits="userSpaceOnUse">
      <stop stop-color="#F8FAFC"/>
      <stop offset=".68" stop-color="#CBD5E1"/>
      <stop offset="1" stop-color="#67E8F9"/>
    </linearGradient>
    <filter id="glow" x="-25%" y="-25%" width="150%" height="150%" color-interpolation-filters="sRGB">
      <feDropShadow dx="0" dy="0" stdDeviation="5" flood-color="#22D3EE" flood-opacity=".32"/>
      <feDropShadow dx="0" dy="8" stdDeviation="18" flood-color="#0F172A" flood-opacity=".45"/>
    </filter>
  </defs>
  <rect width="760" height="168" rx="28" fill="none"/>
  <g filter="url(#glow)">
    <path d="M83 18 137 40v44c0 36-22 58-54 72-32-14-54-36-54-72V40l54-22Z" fill="#07111F" stroke="url(#mark-cyan)" stroke-width="4"/>
    <path d="M54 58h58l-14 20H75l-9 13h55l-14 20H51l14-20H43l11-33Z" fill="url(#mark-cyan)"/>
    <path d="M83 43v78" stroke="#E2E8F0" stroke-linecap="round" stroke-width="7"/>
  </g>
  <g font-family="Inter, ui-sans-serif, system-ui, -apple-system, BlinkMacSystemFont, 'Segoe UI', sans-serif">
    <text x="176" y="98" fill="url(#word)" font-size="58" font-weight="800" letter-spacing=".5">TradeVeto</text>
    <text x="181" y="126" fill="#94A3B8" font-size="16" font-weight="700" letter-spacing="3.6">NOT EVERY TRADE DESERVES RISK</text>
  </g>
</svg>
